<svg width="97" height="78" viewBox="0 0 97 78" fill="none" xmlns="http://www.w3.org/2000/svg">
<path d="M96.717 52.6715C94.3035 44.9309 76.9197 43.4177 69.6902 42.2629C59.4436 40.6263 48.892 39.3212 38.3399 38.5241C49.1012 37.1699 59.8888 35.9356 70.3733 33.176C80.998 30.3798 102.597 20.6222 94.5399 7.83807C87.505 -3.32412 65.1938 0.0861601 53.6092 2.17396C34.8232 5.55991 16.2339 20.8421 14.859 37.8579C14.7677 37.8931 14.678 37.9291 14.5953 37.9717C9.99159 32.2464 6.44364 25.803 3.67667 18.4257C3.02879 16.6973 0.42215 17.1641 0.19577 18.8316C-2.07811 35.6045 15.9203 50.0957 30.0844 58.9306C38.5401 64.2045 47.985 68.4509 57.6008 71.9129C64.4335 74.3732 74.2349 78.9104 81.8012 77.8391C84.2566 77.491 84.0252 74.7421 82.4208 73.7495C77.3528 70.613 68.9924 69.8151 63.1171 67.8529C53.9868 64.8029 45.276 60.8124 37.0462 56.2552C30.4887 52.6242 24.9785 48.6441 20.3178 44.1969C37.5418 48.8945 53.9732 55.6781 71.6313 59.2622C76.421 60.234 99.8243 62.6369 96.717 52.6715ZM56.1195 5.53601C64.9553 4.00318 93.0087 0.638969 90.5791 14.2818C88.4282 26.3576 66.7946 29.6922 55.7167 31.6566C43.2461 33.8683 30.0945 34.2672 17.7757 37.1364C22.0951 21.4957 37.9179 8.69336 56.1195 5.53601ZM27.63 42.0126C38.6414 42.4372 49.5732 43.9892 60.5336 45.14C70.211 46.1561 81.2224 47.6259 89.851 51.7224C97.2283 55.2252 83.1897 56.6842 80.4949 56.546C73.5371 56.1887 66.5587 54.1075 59.9937 52.2365C49.1048 49.1322 38.4776 45.2425 27.63 42.0126Z" fill="#2B5E54"/>
</svg>
