<svg width="80" height="80" viewBox="0 0 80 80" fill="none" xmlns="http://www.w3.org/2000/svg">
<path d="M79.7666 54.0221C77.7761 46.083 63.4389 44.5309 57.4764 43.3466C49.0257 41.668 40.3233 40.3294 31.6205 39.5119C40.4959 38.123 49.3928 36.8571 58.0399 34.0266C66.8025 31.1587 84.6159 21.151 77.9711 8.03905C72.1691 -3.40936 53.7681 0.0883693 44.2137 2.22971C28.7202 5.70247 13.3888 21.3765 12.2548 38.8286C12.1796 38.8647 12.1056 38.9017 12.0374 38.9454C8.24048 33.0732 5.31434 26.4646 3.0323 18.8982C2.49797 17.1255 0.348165 17.6042 0.16146 19.3145C-1.7139 36.5174 13.1301 51.3802 24.8119 60.4417C31.7856 65.8507 39.5752 70.2061 47.5058 73.7568C53.141 76.2802 61.2246 80.9337 67.4649 79.835C69.49 79.4779 69.2991 76.6586 67.976 75.6405C63.7961 72.4236 56.9009 71.6052 52.0553 69.5927C44.5252 66.4645 37.341 62.3717 30.5535 57.6977C25.1453 53.9735 20.6008 49.8914 16.757 45.3302C30.9623 50.1482 44.514 57.1057 59.0773 60.7818C63.0277 61.7784 82.3293 64.2429 79.7666 54.0221ZM46.2841 5.67796C53.5714 4.10583 76.7082 0.655352 74.7044 14.648C72.9305 27.0334 55.0883 30.4536 45.9519 32.4683C35.6669 34.7367 24.8202 35.1459 14.6604 38.0887C18.2227 22.0469 31.2725 8.91626 46.2841 5.67796ZM22.7876 43.0899C31.8692 43.5254 40.8851 45.1171 49.9247 46.2974C57.906 47.3396 66.9875 48.8471 74.1039 53.0486C80.1883 56.6413 68.6101 58.1376 66.3875 57.9959C60.6492 57.6295 54.8937 55.4948 49.4793 53.5759C40.4988 50.392 31.7341 46.4026 22.7876 43.0899Z" fill="white"/>
</svg>
