<svg width="60" height="60" viewBox="0 0 60 60" fill="none" xmlns="http://www.w3.org/2000/svg">
<path d="M30.6868 29.3175L47.6504 22.6163L51.2132 8.78711L37.2889 12.3107L30.6868 29.3175Z" fill="#639C91"/>
<path d="M30.6826 30.6875L37.3838 47.6511L51.2131 51.2139L51.2085 51.1846L47.6894 37.2896L30.6826 30.6875Z" fill="#639C91"/>
<path d="M29.3133 30.6836L12.3496 37.3848L8.78687 51.214L22.7112 47.6904L29.3133 30.6836Z" fill="#20594F"/>
<path d="M29.3173 29.3135L22.6161 12.3499L8.78687 8.78711L12.3105 22.7114L29.3173 29.3135Z" fill="#20594F"/>
<path d="M43.083 38.5808C38.2685 38.5925 30 29.9999 30 29.9999C30 29.9999 38.3704 21.3671 43.185 21.3555C47.9995 21.3438 60 29.9999 60 29.9999C60 29.9999 47.8975 38.5693 43.083 38.5808V38.5808Z" fill="#20594F"/>
<path d="M16.917 21.4199C21.7315 21.4083 30 30.0009 30 30.0009C30 30.0009 21.6296 38.6336 16.815 38.6453C12.0005 38.6568 0 30.0009 0 30.0009C0 30.0009 12.1025 21.4316 16.917 21.4199V21.4199Z" fill="#278E81"/>
<path d="M21.3557 16.815C21.3674 21.6296 30.0001 30 30.0001 30L31.1766 16.5097L30.0001 0C30.0001 0 21.3442 12.0005 21.3557 16.815V16.815Z" fill="#42958E"/>
<path d="M38.5809 16.917C38.5693 12.1025 30 0 30 0V30C30 30 38.5925 21.7316 38.5809 16.917V16.917Z" fill="#278E81"/>
<path d="M21.419 43.083C21.4306 47.8975 29.9999 60 29.9999 60L30.9999 46.353L29.9999 30C29.9999 30 21.4074 38.2685 21.419 43.083V43.083Z" fill="#42958E"/>
<path d="M30 30V60C30 60 38.6559 47.9995 38.6444 43.185C38.6327 38.3704 30 30 30 30V30Z" fill="#278E81"/>
</svg>
